<svg xmlns="http://www.w3.org/2000/svg" viewBox="-36 122 420 420" width="32" height="32">
	<rect x="-36" y="122" width="420" height="420" rx="90" fill="#00C943" />
	<path
		d="M155.533 342.024L158.062 342.024 156.794 344.229 147.364 360.67 149.478 361.902 163.7 370.168 168.44 361.902 173.129 353.721 174.396 351.521 175.659 353.721 180.348 361.902 185.088 370.168 199.31 361.902 201.424 360.676 191.994 344.229 190.732 342.024 193.255 342.024 203.234 342.024 212.12 342.024 212.12 323.038 203.234 323.038 193.255 323.038 190.732 323.038 191.994 320.833 201.424 304.386 200.127 303.635 185.088 294.894 180.073 303.635 175.659 311.341 174.396 313.541 173.129 311.341 168.709 303.635 163.7 294.894 148.661 303.635 147.364 304.386 156.794 320.833 158.056 323.038 155.533 323.038 145.354 323.038 136.668 323.038 136.668 342.024 145.354 342.024 155.533 342.024Z"
		fill="#ffffff"
	/>
	<path
		d="M203.279 452.648L145.515 452.648L145.515 419.934L145.354 419.934L87.47 419.934L29.59 419.934L29.59 361.668L-28.29 361.668L-28.29 303.394L29.59 303.394L29.59 245.128L87.47 245.128L145.354 245.128L145.515 245.128L145.515 212.884L203.279 212.884L203.279 245.128L261.107 245.128L318.987 245.128L318.987 303.394L376.872 303.394L376.872 361.668L318.987 361.668L318.987 419.934L261.107 419.934L203.279 419.934L203.279 452.648ZM255.899 303.394C237.867 291.21 220.236 283.688 203.234 279.844C182.902 275.25 163.477 275.915 145.354 280.154C126.324 284.611 108.727 293.003 93.032 303.394L87.47 307.216C76.817 314.795 67.114 323.245 58.53 331.883C65.921 339.766 75.732 348.262 87.47 356.087C90.336 357.995 93.312 359.857 96.397 361.668C110.658 370.025 127.215 377.106 145.354 381.03C163.328 384.92 182.855 385.71 203.234 381.563C219.282 378.292 235.851 371.956 252.614 361.668C255.441 359.931 258.274 358.081 261.107 356.117C270.737 349.442 280.406 341.422 290.053 331.883C280.32 322.185 270.663 313.953 261.107 307.044C259.365 305.784 257.629 304.569 255.899 303.394Z"
		fill="#ffffff"
	/>
</svg>
